<svg xmlns="http://www.w3.org/2000/svg" width="25.999" height="28.333" viewBox="0 0 25.999 28.333">
  <g id="document" transform="translate(-3 -1022.36)">
    <path id="Path_27" data-name="Path 27" d="M26.295,1028.39a2,2,0,0,0-1.414.584l-1.061,1.061a.5.5,0,0,0,0,.707l2.828,2.828a.5.5,0,0,0,.707,0l1.061-1.06a2.007,2.007,0,0,0,0-2.828l-.707-.707a2,2,0,0,0-1.414-.584Zm0,.992a1,1,0,0,1,.707.3l.707.707a.987.987,0,0,1,0,1.414l-.707.707-2.121-2.121.707-.707a1,1,0,0,1,.707-.3Z" fill="#aaa"/>
    <path id="Path_28" data-name="Path 28" d="M18.492,1022.36a.5.5,0,0,0-.492.5v4.033a.5.5,0,0,0,.5.5h4.033a.5.5,0,0,0,.353-.854l-4.033-4.033a.5.5,0,0,0-.361-.146Zm.508,1.71,2.326,2.326H19Z" fill="#aaa" fill-rule="evenodd"/>
    <path id="Path_29" data-name="Path 29" d="M6,1032.39v1H19v-1Zm0-3v1H17v-1Zm0-3v1h9v-1Z" fill="#f05542" fill-rule="evenodd"/>
    <path id="Path_30" data-name="Path 30" d="M3.5,1022.39a.5.5,0,0,0-.5.5v24.988a.5.5,0,0,0,.5.5H7.8a.5.5,0,0,0,0-1H4V1023.39H16.5a.5.5,0,1,0,0-1Zm18.992,6.024a.5.5,0,0,0-.492.516v3.086a.5.5,0,0,0,1,0v-3.086a.5.5,0,0,0-.508-.508Zm0,8.811a.5.5,0,0,0-.492.516v9.646H12.721a.5.5,0,1,0,0,1H22.5a.5.5,0,0,0,.5-.5V1037.74a.5.5,0,0,0-.508-.508Z" fill="#aaa"/>
    <path id="Path_31" data-name="Path 31" d="M25.588,1031.1l-15.557,15.555.707.709,15.557-15.557Z" fill="#f05542" fill-rule="evenodd"/>
    <path id="Path_32" data-name="Path 32" d="M8.611,1045.45a.5.5,0,0,0-.467.342l-1.416,4.242a.5.5,0,0,0,.633.633l4.242-1.416a.5.5,0,0,0,.2-.826l-2.83-2.83a.5.5,0,0,0-.359-.145Zm.225,1.424,1.686,1.686-2.527.842.842-2.527Z" fill="#aaa"/>
    <path id="Path_33" data-name="Path 33" d="M24.168,1029.89a.5.5,0,0,0-.348.146L8.264,1045.591a.5.5,0,0,0,0,.707l2.83,2.83a.5.5,0,0,0,.707,0l15.555-15.557a.5.5,0,0,0,0-.707l-2.828-2.828a.5.5,0,0,0-.359-.146Zm.006,1.207,2.121,2.121-14.848,14.85-2.123-2.123,14.85-14.848Z" fill="#f05542"/>
  </g>
</svg>
